<svg version="1.2" xmlns="http://www.w3.org/2000/svg" viewBox="0 0 1524 1129" width="1524" height="1129">
	<title>logo-soprasteria-svg</title>
	<style>
		.s0 { fill: #f67200 } 
		.s1 { fill: #de1823 } 
	</style>
	<path id="Layer" class="s0" d="m203.2 111.3c-99.1-1.6-176.7 25.3-198.1 95.4-44.2 144.8 242.1 300.3 377.1 374.3 29 15.9 41.4 6 23-15.2-85.3-98.1-206.6-291.3-35.4-404.7 8.4-5.5 18.5-11.7 27.6-17l2.7-1.6-2.7-0.4c-67.5-18.5-134.7-29.8-194.2-30.8zm920.8 429.1c-14.9-2.9-18.5 6.6-4.6 22.5 85.1 98.1 206.7 291.2 35.3 404.7v-0.1c-8.2 5.5-18.2 11.8-27.4 17.1l-2.8 1.6 2.8 0.4c179.8 49.3 357.9 47.5 392.1-64.7 44.3-144.9-241.9-300.2-377.1-374.3-7.2-3.9-13.3-6.2-18.3-7.2z"/>
	<path id="Layer" class="s1" d="m1026.3 0.3c-399.8 0-626.2 142.2-626.2 142.2 265.4 50 790.4 316.8 959 316.8 65.5 0 97-63.7 97-139.5 0-88.4-31.4-184.6-89.6-241.6-55.1-54.3-185.4-77.9-340.2-77.9zm-860.8 669c-65.5 0-96.9 63.7-96.9 139.6 0 88.4 31.4 184.5 89.4 241.6 55.2 54.2 185.6 78 340.4 78 399.7 0 626.3-142.4 626.3-142.4-265.5-49.9-790.6-316.8-959.2-316.8z"/>
</svg>